<svg id="visual" viewBox="0 0 900 600" width="900" height="600" xmlns="http://www.w3.org/2000/svg" xmlns:xlink="http://www.w3.org/1999/xlink" version="1.1"><path d="M0 67L82 73L164 85L245 97L327 73L409 55L491 55L573 61L655 97L736 43L818 91L900 49L900 0L818 0L736 0L655 0L573 0L491 0L409 0L327 0L245 0L164 0L82 0L0 0Z" fill="#00cc8e"></path><path d="M0 199L82 289L164 331L245 307L327 295L409 205L491 211L573 157L655 289L736 247L818 205L900 265L900 47L818 89L736 41L655 95L573 59L491 53L409 53L327 71L245 95L164 83L82 71L0 65Z" fill="#00b98a"></path><path d="M0 343L82 361L164 421L245 409L327 421L409 433L491 457L573 379L655 421L736 403L818 409L900 415L900 263L818 203L736 245L655 287L573 155L491 209L409 203L327 293L245 305L164 329L82 287L0 197Z" fill="#00a784"></path><path d="M0 463L82 481L164 511L245 529L327 529L409 499L491 541L573 451L655 523L736 481L818 481L900 523L900 413L818 407L736 401L655 419L573 377L491 455L409 431L327 419L245 407L164 419L82 359L0 341Z" fill="#00957c"></path><path d="M0 601L82 601L164 601L245 601L327 601L409 601L491 601L573 601L655 601L736 601L818 601L900 601L900 521L818 479L736 479L655 521L573 449L491 539L409 497L327 527L245 527L164 509L82 479L0 461Z" fill="#038373"></path></svg>